<svg width="512" height="512" viewBox="0 0 512 512" fill="none" xmlns="http://www.w3.org/2000/svg">
<path fill-rule="evenodd" clip-rule="evenodd" d="M86.6885 0.599216C57.0178 0.65155 32.9948 24.7225 33 54.3932C33.0183 152.28 33.0576 358.657 33.0768 456.599C33.082 486.299 57.1599 510.372 86.8603 510.372C128.647 510.372 185.262 510.372 220.582 510.372C240.807 510.372 259.323 499.026 268.504 481.004C307.798 403.877 414.935 193.587 473.721 78.1991C482.224 61.5106 481.432 41.6011 471.631 25.6401C461.831 9.68002 444.433 -0.0331518 425.704 -6.99758e-06C326.667 0.175312 168.861 0.454426 86.6885 0.599216V0.599216Z" fill="#F65441"/>
<path d="M168.691 0.962952H314.082C314.082 0.962952 276.893 67.7131 258.698 100.369C256.659 104.03 256.71 108.498 258.833 112.111C260.956 115.725 264.834 117.944 269.025 117.944H338.533C342.618 117.944 346.413 120.052 348.571 123.52C350.728 126.987 350.943 131.323 349.139 134.987C321.259 191.6 231.564 373.737 197.177 443.565C196.092 445.767 193.57 446.858 191.222 446.141C188.874 445.425 187.391 443.111 187.722 440.678C195.403 384.091 211.577 264.933 217.005 224.94C217.465 221.558 216.44 218.143 214.195 215.574C211.95 213.003 208.704 211.528 205.292 211.528C186.589 211.528 152.955 211.528 133.523 211.528C129.906 211.528 126.488 209.873 124.246 207.035C122.004 204.196 121.185 200.488 122.023 196.97C133.372 149.304 168.691 0.962952 168.691 0.962952V0.962952Z" fill="url(#paint0_linear)"/>
<path d="M139.928 0.0619202H285.318C285.318 0.0619202 248.129 67.5622 229.935 100.218C227.895 103.879 227.946 108.347 230.069 111.96C232.193 115.573 236.07 117.792 240.261 117.792H308.352C312.57 117.792 316.468 120.04 318.582 123.69C320.696 127.341 320.704 131.841 318.604 135.499C290.881 183.792 214.08 317.574 184.849 368.493C183.675 370.536 181.236 371.485 178.99 370.772C176.744 370.058 175.299 367.875 175.52 365.529C179.077 327.83 186.033 254.087 188.843 224.309C189.156 220.996 188.057 217.704 185.817 215.242C183.576 212.78 180.402 211.378 177.073 211.378C158.486 211.378 124.382 211.378 104.759 211.378C101.142 211.378 97.7248 209.722 95.4832 206.884C93.2407 204.046 92.4217 200.337 93.2599 196.818C104.608 149.153 139.928 0.0619202 139.928 0.0619202V0.0619202Z" fill="white"/>
<defs>
<linearGradient id="paint0_linear" x1="350.354" y1="0.962871" x2="131.37" y2="667.333" gradientUnits="userSpaceOnUse">
<stop stop-opacity="0.13"/>
<stop offset="0.507828" stop-opacity="0.1"/>
<stop offset="1" stop-opacity="0"/>
</linearGradient>
</defs>
</svg>
